<?xml version="1.0" standalone="no"?>
<!DOCTYPE svg PUBLIC "-//W3C//DTD SVG 20010904//EN"
 "http://www.w3.org/TR/2001/REC-SVG-20010904/DTD/svg10.dtd">
<svg version="1.0" xmlns="http://www.w3.org/2000/svg"
 width="700.000000pt" height="700.000000pt" viewBox="0 0 700.000000 700.000000"
 preserveAspectRatio="xMidYMid meet">
<metadata>
Created by potrace 1.14, written by Peter Selinger 2001-2017
</metadata>
<g transform="translate(0.000000,700.000000) scale(0.100000,-0.100000)"
fill="#000000" stroke="none">
<path d="M6886 6878 c-8 -13 -17 -34 -21 -48 -4 -14 -19 -50 -33 -80 -62 -129
-396 -404 -682 -562 -165 -92 -413 -206 -560 -259 -244 -89 -460 -157 -705
-224 -163 -45 -722 -189 -795 -205 -32 -7 -221 -56 -365 -95 -241 -65 -516
-154 -715 -230 -255 -99 -704 -310 -945 -445 -733 -411 -1253 -864 -1608
-1403 -83 -125 -162 -273 -240 -447 -43 -98 -124 -339 -141 -426 -3 -10 -9
-40 -15 -65 -15 -68 -40 -223 -48 -309 -15 -146 -7 -598 12 -670 2 -8 6 -35 9
-60 7 -53 13 -87 27 -156 5 -28 12 -61 14 -75 3 -13 16 -76 30 -139 15 -63 28
-123 30 -133 2 -9 16 -59 30 -111 44 -152 81 -201 125 -161 38 35 49 130 55
490 2 132 8 265 14 295 6 30 13 69 16 86 9 56 55 206 87 283 157 381 463 721
1018 1132 645 479 760 570 933 738 123 120 223 243 320 391 83 129 147 205
177 213 29 8 49 -25 44 -76 -4 -39 -7 -53 -19 -109 -3 -13 -7 -33 -9 -44 -2
-12 -16 -57 -29 -100 -68 -213 -189 -434 -412 -749 -209 -297 -308 -463 -355
-594 -34 -98 -41 -132 -41 -223 -1 -94 14 -153 61 -254 69 -143 163 -237 295
-289 63 -26 81 -29 190 -28 101 0 134 4 209 27 264 80 539 279 733 531 17 22
53 81 81 130 88 154 137 195 162 134 19 -44 6 -239 -25 -394 -15 -71 -28 -139
-30 -150 -14 -96 -111 -438 -157 -555 -39 -102 -106 -246 -141 -305 -157 -267
-353 -486 -612 -685 -102 -78 -178 -119 -383 -204 -120 -50 -165 -93 -143
-134 6 -11 20 -22 31 -25 23 -6 238 -1 285 7 17 2 59 8 95 11 64 7 79 9 130
20 14 2 40 7 59 10 53 9 249 64 346 97 554 191 1154 618 1648 1173 154 173
228 263 349 425 310 416 572 877 748 1320 62 156 149 423 151 467 4 57 -23 97
-59 88 -27 -7 -100 -59 -157 -113 -83 -77 -293 -228 -394 -283 -133 -72 -260
-131 -316 -146 -241 -64 -377 -78 -525 -52 -144 25 -209 54 -308 137 -131 110
-205 312 -197 537 4 111 7 133 36 219 29 85 63 148 134 251 102 149 216 267
464 481 107 92 441 337 709 519 361 245 627 435 794 568 288 227 470 423 554
594 97 200 121 425 48 453 -38 15 -52 12 -68 -12z"/>
</g>
</svg>
